<?xml version="1.0" encoding="utf-8"?>
<!-- Generator: Adobe Illustrator 21.1.0, SVG Export Plug-In . SVG Version: 6.00 Build 0)  -->
<svg version="1.1" id="Layer_1" xmlns="http://www.w3.org/2000/svg" xmlns:xlink="http://www.w3.org/1999/xlink" x="0px" y="0px"
	 viewBox="0 0 540 150" style="enable-background:new 0 0 540 150;" xml:space="preserve">
<style type="text/css">
	.st0{fill-rule:evenodd;clip-rule:evenodd;fill:#FFFFFF;}
	.st1{fill:url(#XMLID_3_);}
	.st2{fill:url(#XMLID_4_);}
	.st3{fill-rule:evenodd;clip-rule:evenodd;fill:url(#XMLID_5_);}
	.st4{fill:url(#XMLID_6_);}
	.st5{fill-rule:evenodd;clip-rule:evenodd;fill:url(#XMLID_7_);}
</style>
<rect id="XMLID_476_" class="st0" width="540" height="150"/>
<linearGradient id="XMLID_3_" gradientUnits="userSpaceOnUse" x1="270" y1="-2.052" x2="270" y2="94.5626">
	<stop  offset="0" style="stop-color:#B8C6D3"/>
	<stop  offset="1" style="stop-color:#FCFDFF"/>
</linearGradient>
<rect id="XMLID_496_" class="st1" width="540" height="94.6"/>
<g id="XMLID_2_">
	<linearGradient id="XMLID_4_" gradientUnits="userSpaceOnUse" x1="270" y1="58.0075" x2="270" y2="144.0733">
		<stop  offset="0" style="stop-color:#6D87A5"/>
		<stop  offset="1" style="stop-color:#BACFE0"/>
	</linearGradient>
	<path id="XMLID_483_" class="st2" d="M194.4,135.8c60.2,13.7,119.7,10.5,176.5-9.7c15.9-5.7,46.3-9.9,62.1-4.3l107-7.1V76.6
		c-0.8,0.7-1.7,1.5-2,2.1c-3.7,10.6-6.3,5.3-7.6,7c-3,3.7-10.5-3.9-10.5-3.9c-0.9-3.6-8.4-4.9-11.1-4.8c-3.8,0.1-9.6-6.8-12.4-4.4
		c-9.7,8-8.8,3.3-11,4.5c-17.5,9.4-16.7-2.6-20.7-2.5c-7.2,0.3-5.8-8.8-9.3-6.7c-8.1,4.8-19.5,16.9-19.6,17c-7.9,2.3-7.2-5.1-18-5.1
		l-7.5-1.2c-4.9,1.4-15.7,6-15.6,7c0.2,2.6,0.5,1.4-4.4,2.5c-8.5,1.9-5.4,4.7-13.5-1.4c-2.1-1.6-5.2-3.3-7.8-2.8
		c-3.8,0.7-6.1,0.5-7.8,0.8c-3.6,0.6-0.9,4.3-8.2,3c-5.2-0.9-1.1,1.8-6.4-1.9c-7.5-5.3-10.6,0.9-18-5.2c-4.2-3.5-7.8,1.4-10.5-4.9
		c-4.4-0.4-8.3,0.1-11.1,2.7c-6.8,6.4-9.6,3.6-16.1,9.2c-0.7,0.6-15.7,6.6-17.2,6.6c-7.7-1.6-17.4-4-23.9-7.6
		c-3.4-1.9-4.3,1.7-12.6-6.4c-16.2-15.8-15.4,1.9-30.3-15.6c-2.6-3-13.5-0.6-17.9-6.3c-0.1-0.1-13.2,4.7-12.7,6.2
		c1.1,3.6-19.5,4.4-19.5,5.5c0,5.8-21.8,6.2-27.8,2.6c0,0-0.1,0.1-0.1,0.1v-0.1c-0.9-2.9-5.9-5.7-10.1-4.7
		c-3.7,0.8-20.4-6.1-20.5-6.1c-1.5,0.5-8.6,2.5-9.2,3.3c-4.1,5.4-8.9,2-13.5,6.9c-2.1,2.2-2-0.9-5.8,3.6c-1.2,1.4-9.9,4.5-13.3,2.5
		c-4.9-2.8-3.9-1.8-7.4-5.7c-1.5-1.7-1.5,2.4-6.1-2.4c-1.4-1.4-5.1,1.5-5.4,1.6c-0.2,0.6-5.2,2.8-5.2,2.8c-5.2,0-0.5-0.9-4.5,1.1
		c-4.5,2.2-5-4.8-14,1.5c-1.9,1.4-1.8-2.5-7.8-0.8c-2.8,0.8,2.3-2-4-2.8c-0.3-0.4-1.1-1.7-1.8-2.2v41.5l120,18.4
		C131.9,134.1,183,133.2,194.4,135.8z"/>
	<linearGradient id="XMLID_5_" gradientUnits="userSpaceOnUse" x1="435.6825" y1="86.2847" x2="435.6825" y2="122.2679">
		<stop  offset="0" style="stop-color:#6B83AB"/>
		<stop  offset="1" style="stop-color:#8DA4C2"/>
	</linearGradient>
	<path id="XMLID_455_" class="st3" d="M528.6,122.3l1.6-27.5c-2.5-0.8-12.3-3.5-14.2-2.7c-9.9,4.2-5-3.1-19.4,5.4
		c-0.1,0.1-5.6-0.5-6-2.9c-0.3-2-7.9-1-13.6-3.6c0,0-10.6,1.8-10.9,3.3c-0.9,4.3-14.3,5-18.6-0.1c-4-4.8-20.1-12-29.1-4.5
		c-6.3,5.2-3.5,0.6-9.8,3.9c-3.8,2,0.2,2.9-9.6,5.4c-6.4,1.6,2.8,4-14.3-0.9c-7.3-2.1-11.5-0.5-21.9,0c-10.4,0.6-1.8,4.6-18.4,1.9
		c-2.6-0.4-3.2-0.1-3.2-0.9v19.3L528.6,122.3z"/>
	<linearGradient id="XMLID_6_" gradientUnits="userSpaceOnUse" x1="369.6492" y1="75.7704" x2="369.6492" y2="144.0703">
		<stop  offset="0" style="stop-color:#44618F"/>
		<stop  offset="1" style="stop-color:#93ABC9"/>
	</linearGradient>
	<path id="XMLID_454_" class="st4" d="M539.5,86.2c-5.2,7-3.9-0.1-5.7,2.1c-3.2,3.9-1.4,4.7-4.4,5.3c0,0.9-1.1,1.3-1.5,2.4
		c-0.8,2.1-5.9,7.6-6.4,7.7c-3.6,0.7-12.1,6.8-13.8,7.1c-7.7,1.4-5-1.9-8.1,0.4c-9.1,6.5-7.5,0.2-10.2,3.1c-8,8.7-12.2-1.8-13.1-1.2
		c-7.1,5.4-15.1,2.5-18.2,3c-6.1,0.9-2.7-1.5-10.1-2.6c-1.5-5-5-0.8-9.8-4.2c-6.5-4.6-3.4-2.5-6.2-1.6c-4,1.2-5.5,4.2-6.9,2.9
		c-14.5-12.9-13-3-15.5-1.5c-10.8,6.2-4.3,0.7-10.6,2.1c-5.4,1.2-10.3-3.3-13.4-0.6c-5.2,4.5-18.1-1.6-24.3-2.7
		c-19.8-3.5-12.4-6.3-15.6-7.9c-3.9-2-7.8-5.3-10.3-9.4c-3.1-5-4,2.1-7.8,2.8c-7.8,1.5-3.1,2.5-10.9,1.6
		c-0.8-1.4-5.4-12.7-11.1-12.3c-4.2,0.3-13.3-5.3-14.4-6.3c-4.3-4.2-19.4,17.4-34.4,16.2c-5.2-0.4-4.4-0.4-10,7
		c-2.2,3-7.9,5.2-10.2,4.2c-3.7-1.7-8,2.9-12.3,6.1c-8.4,6.3-2.9,2.2-9.5,4.9c-8.7,3.5-8.4,7.8-15.6,10.5c0,1,1.9,1.1,2.7,1.1
		c6.2,0,23.1,13.9,46,11.4c34.4-3.8,61.5,6.8,95.8-0.7c7.1-1.5,23.8,10.2,29.4,6.1v-7.7H540V86.1C539.8,86.1,539.6,86.1,539.5,86.2z
		"/>
	<linearGradient id="XMLID_7_" gradientUnits="userSpaceOnUse" x1="202.3034" y1="56.1699" x2="202.3034" y2="131.5587">
		<stop  offset="0" style="stop-color:#193C69"/>
		<stop  offset="1" style="stop-color:#839FC1"/>
	</linearGradient>
	<path id="XMLID_453_" class="st5" d="M120,88.8c0.1-0.1,0.2-0.2,0.3-0.2l0,0l0,0c6.2-5.6,18.1-1.6,24.5,0.8
		c15.1,5.5,16.6-4.9,27.3-0.6c1.8,0.7,16.4-3.4,17.2-4.8c1.7-0.2,1.9-1.9,9.6-1.9c14.1,0,14.2,2.3,26.5,10c7.8,4.8,8,1.8,13.2,5.2
		c2.1,1.4,6.9-3,13.4-0.1c13.1,5.9,20.1-0.4,32.4,14.2c3.5,4.1,16.8,5.8,21.5,3.6c1.4-0.6,19.1-0.7,21.3-1.8c3.3-0.7,8.3,1.4,23,9.2
		c2.5,1.3,18.6,6,23,6.8v17.9c-30-2.6-113.7,2.5-143.3-5.2c-25.4-6.7-14.8-11.1-42.4-13.5c-13.1-1.1-46.3,3.7-60-5.5
		c-0.9-0.6-5-1.2-7.4-1.4v-7.1c-13.3,0.7-33.2-1.1-35.2-1.5c-16.2-3.3-43.2,5.9-49,2.3c-7.8-4.7-3.4-6.3-1.2-12.3
		c2.2-5.9,11,4,13.4-1.3c2.6-5.7,6.6-0.5,9.7-2.8c12.6-9.5,14.2,5.9,22.8-1.5c11.3-9.8,17.8,5.4,27.6-5.6c5.8-6.5,8.8,3.4,11.8-2.6
		V88.8z"/>
	
		<image style="overflow:visible;" width="2250" height="226" xlink:href="C5FA0C14.png"  transform="matrix(0.24 0 0 0.24 0 95.76)">
	</image>
</g>
</svg>
